<svg xmlns="http://www.w3.org/2000/svg" width="16" height="16" viewBox="0 0 16 16"><defs><style>.a{fill:#909399;}.b{fill:none;}</style></defs><g transform="translate(-540 -334)"><path class="a" d="M4357.953-445.753h-.8a.6.6,0,0,1-.6-.6.6.6,0,0,1,.6-.6h13.2a.6.6,0,0,1,.6.6.6.6,0,0,1-.6.6h-11.2v10.6a1,1,0,0,0,.293.707,1,1,0,0,0,.707.293h7.2a1,1,0,0,0,.707-.293,1,1,0,0,0,.293-.707v-8.8a.6.6,0,0,1,.6-.6.6.6,0,0,1,.6.6v8.8a2.2,2.2,0,0,1-2.2,2.2h-7.2a2.2,2.2,0,0,1-2.2-2.2Zm4.2-2a.6.6,0,0,1-.6-.6.6.6,0,0,1,.6-.6h3.2a.6.6,0,0,1,.6.6.6.6,0,0,1-.6.6Zm-.6,5.4a.6.6,0,0,1,.6-.6.6.6,0,0,1,.6.6v4.8a.6.6,0,0,1-.6.6.6.6,0,0,1-.6-.6Zm3.2,0a.6.6,0,0,1,.6-.6.6.6,0,0,1,.6.6v4.8a.6.6,0,0,1-.6.6.6.6,0,0,1-.6-.6Zm0,0" transform="translate(-3815.553 782.953)"/><rect class="b" width="16" height="16" transform="translate(540 334)"/></g></svg>