<svg xmlns="http://www.w3.org/2000/svg" xmlns:xlink="http://www.w3.org/1999/xlink" width="24" height="24" viewBox="0 0 24 24"><defs><style>.a{fill:#fff;}.b{clip-path:url(#a);}</style><clipPath id="a"><rect class="a" width="24" height="24"/></clipPath></defs><g transform="translate(-0.144 -0.144)"><g class="b" transform="translate(0.144 0.144)"><path class="a" d="M22.906,14.116a1.139,1.139,0,0,0-1.153,1.123v6a.59.59,0,0,1-.6.583H2.9a.59.59,0,0,1-.6-.583V2.829a.59.59,0,0,1,.6-.583h7.876a1.139,1.139,0,0,0,1.153-1.123A1.137,1.137,0,0,0,10.773,0H2.9A2.867,2.867,0,0,0,0,2.826V21.239a2.866,2.866,0,0,0,2.9,2.823h18.26a2.867,2.867,0,0,0,2.9-2.826v-6a1.146,1.146,0,0,0-1.156-1.123" transform="translate(-0.062 -0.062)"/><path class="a" d="M119.819,9.293c-1.522,2.3-2.147,6.984-2.183,7.235a1.27,1.27,0,0,0,1.073,1.434,1,1,0,0,0,.181.014,1.277,1.277,0,0,0,1.253-1.076c.01-.085.586-4.417,1.829-6.261a7.624,7.624,0,0,1,6.886-3.668c.05,0,.092.007.127.007a1.268,1.268,0,0,0,1.267-1.267V4.22L133.81,7.6l-3.561,2.967V9.36a1.267,1.267,0,0,0-2.535,0v3.915a1.272,1.272,0,0,0,.733,1.147,1.228,1.228,0,0,0,.534.12,1.273,1.273,0,0,0,.807-.29l6.73-5.6a1.279,1.279,0,0,0,.06-1.894l-6.726-6.4a1.262,1.262,0,0,0-2.135.917V4.485a9.846,9.846,0,0,0-7.9,4.807" transform="translate(-112.969 -0.062)"/></g></g></svg>