<svg xmlns="http://www.w3.org/2000/svg" width="16" height="16" viewBox="0 0 16 16"><defs><style>.a{fill:#fff;}.b,.c{stroke:none;}.c{fill:#606266;}</style></defs><g class="a"><path class="b" d="M 12.37415313720703 15.19621658325195 L 8.204660415649414 13.32563018798828 L 8 13.23381042480469 L 7.795340061187744 13.32563018798828 L 3.625846385955811 15.19621658325195 L 4.032430171966553 10.41261005401611 L 4.049779891967773 10.2085599899292 L 3.918999910354614 10.05097007751465 L 0.8973038792610168 6.409772396087646 L 5.35699987411499 5.336390018463135 L 5.567490100860596 5.285729885101318 L 5.674570083618164 5.097559928894043 L 8 1.010979056358337 L 10.32542991638184 5.097559928894043 L 10.43251037597656 5.285729885101318 L 10.64299964904785 5.336390018463135 L 15.10269641876221 6.409772396087646 L 12.08100032806396 10.05097007751465 L 11.95022010803223 10.2085599899292 L 11.96757030487061 10.41261005401611 L 12.37415313720703 15.19621658325195 Z"/><path class="c" d="M 8 2.021947860717773 L 5.894980430603027 5.721179962158203 L 1.79460620880127 6.708085060119629 L 4.565320014953613 10.04685020446777 L 4.195975303649902 14.39241409301758 L 8 12.68579006195068 L 11.8040246963501 14.39241409301758 L 11.43467998504639 10.04685020446777 L 14.20539379119873 6.708085060119629 L 10.10502052307129 5.721179962158203 L 8 2.021947860717773 M 8 0 L 10.76000022888184 4.85027027130127 L 16 6.111459732055664 L 12.46576976776123 10.37026977539062 L 12.94427013397217 16 L 8 13.78182029724121 L 3.055729866027832 16 L 3.53423023223877 10.37026977539062 L 0 6.111459732055664 L 5.239999771118164 4.85027027130127 L 8 0 Z"/></g></svg>