<svg xmlns="http://www.w3.org/2000/svg" width="24" height="24" viewBox="0 0 24 24"><defs><style>.a{fill:#409EFF;}</style></defs><g transform="translate(-689.921 -118.245)"><g transform="translate(689.921 118.245)"><path class="a" d="M691.733,128.013a.711.711,0,0,0,.2-.028l3.729-1.091a.836.836,0,0,0,.533-1.01.752.752,0,0,0-.924-.583l-1.97.577a9.442,9.442,0,0,1,8.584-5.985c4.561,0,8.477,3.551,9.311,8.443a.776.776,0,0,0,.74.673.677.677,0,0,0,.139-.014.822.822,0,0,0,.6-.961c-.967-5.672-5.507-9.789-10.794-9.789a10.928,10.928,0,0,0-9.892,6.8l-.584-2.384a.752.752,0,0,0-.924-.583.835.835,0,0,0-.533,1.01L691,127.4a.768.768,0,0,0,.728.61ZM713.9,136.9l-1.058-4.312a.751.751,0,0,0-.923-.582l-3.729,1.091a.835.835,0,0,0-.533,1.01.752.752,0,0,0,.924.583l2.1-.617a9.584,9.584,0,0,1-8.8,6.524c-4.577,0-8.5-3.565-9.317-8.477a.762.762,0,0,0-.877-.662.822.822,0,0,0-.606.958c.953,5.7,5.5,9.829,10.8,9.829a11.055,11.055,0,0,0,10.02-7.112l.538,2.194a.768.768,0,0,0,.728.611.711.711,0,0,0,.2-.028.835.835,0,0,0,.533-1.01Zm0,0" transform="translate(-689.922 -118.245)"/></g></g></svg>
