<svg xmlns="http://www.w3.org/2000/svg" xmlns:xlink="http://www.w3.org/1999/xlink" width="16" height="16" viewBox="0 0 16 16"><defs><style>.a{fill:#fff;}.b{clip-path:url(#a);}.c{fill:none;}</style><clipPath id="a"><rect class="a" width="16" height="14.861"/></clipPath></defs><g transform="translate(6118 -15786)"><g transform="translate(-6118 15787)"><g class="b"><path class="a" d="M11.342,186.23a.832.832,0,0,0-.711,1.266L9.727,189c-.015,0-.033,0-.048,0a.837.837,0,0,0-.248.038l-2.523-2.523a.843.843,0,0,0,.038-.248A.832.832,0,1,0,5.4,186.7c.027.045-1.193,1.941-1.193,1.941-.015,0-.033,0-.048,0a.841.841,0,0,0-.248.038l-.622-.622a.832.832,0,1,0-1.627-.248.83.83,0,0,0,.122.434L.88,189.752c-.015,0-.033,0-.048,0a.832.832,0,1,0,.71.4l.906-1.51c.015,0,.033,0,.048,0a.844.844,0,0,0,.248-.038l.622.622a.832.832,0,1,0,1.5-.185L6.065,187.1a.842.842,0,0,0,.3-.036l2.523,2.523a.832.832,0,1,0,1.625.248.83.83,0,0,0-.122-.434l.906-1.508c.015,0,.033,0,.048,0a.832.832,0,1,0,0-1.663" transform="translate(0 -180.995)"/><path class="a" d="M81.1,11.118,83.776,13.8a.616.616,0,1,1-.865.878l-2.692-2.688a6.812,6.812,0,0,1-4.339,1.572,6.768,6.768,0,0,1-5.16-2.4c-.649-.759.336-1.47,1.077-.653a5.537,5.537,0,0,0,7.993.194l.009-.009a5.625,5.625,0,0,0,1.2-1.8,5.578,5.578,0,0,0,.009-4.2L81,4.665A5.5,5.5,0,0,0,79.83,2.9L79.8,2.865a5.575,5.575,0,0,0-1.8-1.2,5.342,5.342,0,0,0-2.118-.423A5.554,5.554,0,0,0,70.826,4.55a.613.613,0,0,1-.57.366h0a.62.62,0,0,1-.565-.879A6.842,6.842,0,0,1,75.88,0a6.822,6.822,0,0,1,4.8,1.986l.035.031a6.886,6.886,0,0,1,1.435,2.167l.013.035a6.747,6.747,0,0,1-.013,5.146A6.833,6.833,0,0,1,81.1,11.118" transform="translate(-67.962)"/></g></g><rect class="c" width="16" height="16" transform="translate(-6118 15786)"/></g></svg>