<svg xmlns="http://www.w3.org/2000/svg" width="16" height="16" viewBox="0 0 16 16"><defs><style>.a{fill:#fff;}</style></defs><g transform="translate(1050.873 257.468)"><path class="a" d="M-1050.182-241.468a.689.689,0,0,1-.687-.617l0-.082v-5.56a.689.689,0,0,1,.618-.687l.082,0h6.6a.344.344,0,0,1,.342.323.344.344,0,0,1-.294.36l-.059,0h-6.607v5.578h6.617a.343.343,0,0,1,.34.295l0,.057a.343.343,0,0,1-.295.331l-.059,0Zm0-9.049a.692.692,0,0,1-.691-.691v-5.568a.692.692,0,0,1,.691-.691h14.617a.692.692,0,0,1,.691.691v5.568a.692.692,0,0,1-.691.691Zm0-.687h14.627v-5.578h-14.627Z"/><path class="a" d="M-789.677,20.208a.692.692,0,0,1-.691-.691.692.692,0,0,1,.691-.691.692.692,0,0,1,.691.691A.692.692,0,0,1-789.677,20.208Z" transform="translate(-249.02 -264.112)"/><path class="a" d="M-852.9-30.178l-1.759-3.128,1.759-3.128h3.534l1.759,3.128-1.759,3.128Zm-.972-3.128,1.373,2.441h2.73l1.373-2.441-1.373-2.441H-852.5Z" transform="translate(-187.56 -211.29)"/><rect class="a" width="0.687" height="1.383" transform="translate(-1047.393 -254.684)"/><rect class="a" width="0.687" height="1.383" transform="translate(-1047.393 -245.635)"/><rect class="a" width="0.687" height="1.383" transform="translate(-1044.609 -254.684)"/><rect class="a" width="0.687" height="1.383" transform="translate(-1044.609 -245.635)"/></g></svg>