<svg xmlns="http://www.w3.org/2000/svg" xmlns:xlink="http://www.w3.org/1999/xlink" width="16" height="16" viewBox="0 0 16 16"><defs><style>.a{fill:#fff;}.b{clip-path:url(#a);}</style><clipPath id="a"><rect class="a" width="16" height="16"/></clipPath></defs><g transform="translate(-70 -130)"><g transform="translate(70 130)"><g class="b" transform="translate(0)"><path class="a" d="M75.043,141.871a.518.518,0,0,0,.729,0l.337-.332,1.953,1.934a.519.519,0,0,0,.729,0,.507.507,0,0,0,0-.724l-1.954-1.934.357-.354a.506.506,0,0,0,0-.724l-2.436-2.411a.522.522,0,0,0-.732,0l-1.424,1.41a.507.507,0,0,0,0,.721ZM74.4,138.41,76.1,140.1l-.692.686L73.7,139.1Zm11.1,8.906a.522.522,0,0,0-.732,0l-.679.671-1.509-1.495a.522.522,0,0,0-.732,0,.507.507,0,0,0,0,.724l1.509,1.495-.747.741a.507.507,0,0,0,0,.724l2.4,2.376a1.63,1.63,0,0,0,2.283,0l.607-.6a1.586,1.586,0,0,0,0-2.258Zm1.669,3.91-.607.6a.582.582,0,0,1-.819,0L83.7,149.814,85.13,148.4l2.036,2.014a.57.57,0,0,1,0,.811Zm0,0" transform="translate(-72.408 -137.038)"/><path class="a" d="M81.4,137.03a3.386,3.386,0,0,0,4.466-3.167,3.268,3.268,0,0,0-.247-1.255.516.516,0,0,0-.38-.309.526.526,0,0,0-.47.145l-1.224,1.25-.657-.175-.18-.666,1.2-1.283a.508.508,0,0,0-.192-.823,3.423,3.423,0,0,0-1.224-.227,3.364,3.364,0,0,0-3.377,3.344,3.327,3.327,0,0,0,.275,1.323l-5.041,4.749A3.386,3.386,0,0,0,69.88,143.1a3.268,3.268,0,0,0,.247,1.255.516.516,0,0,0,.38.309.526.526,0,0,0,.47-.145l1.224-1.25.657.175.18.669-1.2,1.283a.508.508,0,0,0,.192.823,3.4,3.4,0,0,0,1.224.227,3.364,3.364,0,0,0,3.377-3.344,3.327,3.327,0,0,0-.275-1.323Zm-6.118,4.9a2.3,2.3,0,0,1,.322,1.173,2.339,2.339,0,0,1-2.378,2.321l.767-.821a.511.511,0,0,0,.12-.479l-.332-1.225a.514.514,0,0,0-.365-.362l-1.239-.329a.522.522,0,0,0-.5.137l-.757.774V143.1A2.351,2.351,0,0,1,74.249,141a.524.524,0,0,0,.575-.092l5.558-5.235a.508.508,0,0,0,.09-.629,2.3,2.3,0,0,1-.32-1.173,2.335,2.335,0,0,1,2.346-2.321h.035l-.777.821a.511.511,0,0,0-.12.479l.332,1.225a.514.514,0,0,0,.365.362l1.239.329a.524.524,0,0,0,.5-.137l.757-.774v.015a2.351,2.351,0,0,1-3.332,2.106.52.52,0,0,0-.575.092L75.371,141.3a.507.507,0,0,0-.087.629Zm0,0" transform="translate(-69.882 -130.51)"/></g></g></g></svg>