<svg xmlns="http://www.w3.org/2000/svg" width="15.871" height="16" viewBox="0 0 15.871 16"><defs><style>.a{fill:#fff;}</style></defs><path class="a" d="M599.487-63.342a.525.525,0,0,1-.33-.116L592.477-68.8a.624.624,0,0,0-.785,0l-6.68,5.344a.529.529,0,0,1-.527.087.529.529,0,0,1-.334-.417.529.529,0,0,1,.2-.5l6.68-5.344a1.677,1.677,0,0,1,2.107,0l6.681,5.344a.529.529,0,0,1,.168.588.529.529,0,0,1-.5.353ZM596.732-54h-2.709a.528.528,0,0,1-.374-.155.528.528,0,0,1-.155-.374v-3.643a.059.059,0,0,0-.058-.058h-2.7a.059.059,0,0,0-.059.058v3.643a.528.528,0,0,1-.155.374.528.528,0,0,1-.374.155H587.4a1.667,1.667,0,0,1-1.665-1.665v-6.62a.529.529,0,0,1,.264-.458.528.528,0,0,1,.529,0,.529.529,0,0,1,.265.458v6.62a.608.608,0,0,0,.608.607h2.212v-3.114a1.117,1.117,0,0,1,1.116-1.116h2.7a1.117,1.117,0,0,1,1.115,1.116v3.114h2.18a.642.642,0,0,0,.64-.64v-6.587a.529.529,0,0,1,.529-.529.529.529,0,0,1,.529.529V-55.7a1.7,1.7,0,0,1-1.7,1.7Zm0,0" transform="translate(-584.145 70)"/></svg>