<svg xmlns="http://www.w3.org/2000/svg" width="19.157" height="16" viewBox="0 0 19.157 16"><defs><style>.a{fill:#fff;}</style></defs><g transform="translate(-881.043 -497.377)"><path class="a" d="M890.622,502.874a1.8,1.8,0,1,0-1.8-1.8,1.813,1.813,0,0,0,1.8,1.8Zm0-2.885a1.047,1.047,0,0,1,1.034,1.089,1.034,1.034,0,0,1-2.068,0,1.121,1.121,0,0,1,1.034-1.089Zm0,0"/><path class="a" d="M887.356,502.656l2.232,5.116a.053.053,0,0,0,.054.054,1.108,1.108,0,0,0,.871.544,1.029,1.029,0,0,0,.925-.653l2.34-4.9a3.563,3.563,0,0,0,.49-1.8,3.647,3.647,0,0,0-7.293,0,3.289,3.289,0,0,0,.381,1.633Zm3.266-4.463a2.9,2.9,0,0,1,2.884,2.885,3.263,3.263,0,0,1-.381,1.469l-2.34,4.9c-.054.109-.163.218-.218.218s-.163-.055-.272-.218l-2.177-5.061a2.592,2.592,0,0,1-.326-1.306,2.79,2.79,0,0,1,2.83-2.885Zm0,0"/><path class="a" d="M900.2,512.561V512.4l-2.721-5.823a.053.053,0,0,0-.054-.054l-.109-.109a.054.054,0,0,1-.055-.054l-2.939-1.252a.379.379,0,0,0-.272.707l2.83,1.2,2.232,4.789-3.538-1.524-1.2-3.156c-.055-.218-.272-.273-.49-.218s-.272.272-.218.49l1.143,2.993L891,512.452v-2.721a.381.381,0,0,0-.762,0v2.721l-3.81-2.068,1.143-2.993c.055-.218,0-.436-.218-.49s-.435,0-.489.218l-1.2,3.156-3.537,1.524,2.231-4.789,2.83-1.2a.379.379,0,1,0-.272-.707l-2.939,1.252a.053.053,0,0,0-.054.054.054.054,0,0,0-.055.055l-.108.108-2.722,5.823v.273c0,.054.055.054.055.109.054.054.054.054.109.054s.109.054.163.054a.2.2,0,0,0,.163-.054l4.408-1.9,4.517,2.395c.055,0,.109.054.164.054h.163l4.517-2.394,4.408,1.9c.055,0,.109.055.163.055a.2.2,0,0,0,.164-.055c.054,0,.054-.054.109-.054,0-.054.054-.054.054-.109Zm0,0"/></g></svg>