<svg xmlns="http://www.w3.org/2000/svg" width="16" height="16" viewBox="0 0 16 16"><defs><style>.a{fill:#fff;}</style></defs><g transform="translate(1049.948 -241.55)"><path class="a" d="M-1049.262,256.157a.685.685,0,0,1-.682-.615l0-.082V242.239a.685.685,0,0,1,.613-.685l.082,0h13.18a.685.685,0,0,1,.682.615l0,.082v6.606a.34.34,0,0,1-.32.339h-.021a.34.34,0,0,1-.335-.292l0-.059v-6.612h-13.2v13.246h5.911a.34.34,0,0,1,.336.292l0,.057a.34.34,0,0,1-.292.328l-.058,0Z"/><path class="a" d="M-983.523,341.722a.34.34,0,0,1-.339-.34.34.34,0,0,1,.339-.34h.694a.34.34,0,0,1,.339.34.34.34,0,0,1-.339.34Zm-3.471,0a.34.34,0,0,1-.339-.34.34.34,0,0,1,.339-.34h.694a.34.34,0,0,1,.339.34.34.34,0,0,1-.339.34Zm3.471-2.785a.34.34,0,0,1-.339-.341.34.34,0,0,1,.339-.34h3.471a.34.34,0,0,1,.339.34.34.34,0,0,1-.339.341h-3.471Zm-3.471,0a.34.34,0,0,1-.339-.341.34.34,0,0,1,.339-.34h.694a.34.34,0,0,1,.339.34.34.34,0,0,1-.339.341Zm3.471-2.785a.34.34,0,0,1-.339-.34.339.339,0,0,1,.1-.241.336.336,0,0,1,.24-.1h3.471a.34.34,0,0,1,.339.34.34.34,0,0,1-.339.34h-3.471Zm-3.471,0a.34.34,0,0,1-.339-.34.34.34,0,0,1,.339-.34h.694a.34.34,0,0,1,.294.17.342.342,0,0,1,0,.34.34.34,0,0,1-.294.17Z" transform="translate(-59.838 -89.743)"/><path class="a" d="M-783.153,516.862a.688.688,0,0,1-.686-.689.688.688,0,0,1,.686-.689.688.688,0,0,1,.687.689A.688.688,0,0,1-783.153,516.862Z" transform="translate(-254.308 -261.749)"/><path class="a" d="M-845.824,466.949l-1.753-3.126,1.753-3.126h3.521l1.752,3.126-1.752,3.126Zm-.974-3.126,1.371,2.445h2.726l1.371-2.445-1.371-2.445h-2.727Z" transform="translate(-193.398 -209.399)"/></g></svg>