<svg xmlns="http://www.w3.org/2000/svg" width="16" height="16" viewBox="0 0 16 16"><defs><style>.a{fill:#fff;}</style></defs><g transform="translate(522.638 -675.757)"><g transform="translate(-522.638 675.757)"><path class="a" d="M-518.787,679.807a3.034,3.034,0,0,1,3.011-3.02,3.037,3.037,0,0,1,3.012,3.02,3.037,3.037,0,0,1-3.012,3.021,3.036,3.036,0,0,1-3.011-3.021Zm-1.925,10.763a.894.894,0,0,1-.905-.884v-.025a5.864,5.864,0,0,1,5.287-5.81h.62a3.98,3.98,0,0,0,2.154-.688l.229-.172a4.133,4.133,0,0,0,1.534-3.193,4.063,4.063,0,0,0-4.089-4.042A4.03,4.03,0,0,0-519.8,679.8a4.109,4.109,0,0,0,1.534,3.193l.286.172-.286.115a6.84,6.84,0,0,0-4.374,6.376,1.918,1.918,0,0,0,1.894,1.94h5.2a.5.5,0,0,0,.449-.516.463.463,0,0,0-.449-.516h-5.165ZM-507.6,688.3a1.681,1.681,0,0,0-1.476,1.7,1.361,1.361,0,0,0,.115.516l-.734.4-.286-.286a1.613,1.613,0,0,0-.963-.335,1.855,1.855,0,0,0-.963.335c-.115.115-.229.172-.285.286l-.686-.4a1.511,1.511,0,0,0,.115-.516,1.713,1.713,0,0,0-1.476-1.7c0-.115-.056-.335-.056-.573,0-.171.056-.4.056-.573a1.684,1.684,0,0,0,1.476-1.711,1.227,1.227,0,0,0-.115-.516l.734-.4a.99.99,0,0,0,.286.23,1.587,1.587,0,0,0,.905.335,1.681,1.681,0,0,0,.905-.335c.115-.115.229-.172.286-.23l.734.4a1.51,1.51,0,0,0-.115.516,1.726,1.726,0,0,0,1.486,1.711c0,.115.049.335.049.573a1.466,1.466,0,0,1,.009.573Zm.8-1.424a.6.6,0,0,0-.515-.516h-.056a.894.894,0,0,1-.905-.908c0-.115.049-.286.049-.335a.713.713,0,0,0-.229-.8l-1.02-.573h-.278a.606.606,0,0,0-.515.23,1.335,1.335,0,0,1-.686.4c-.229,0-.571-.286-.734-.4a.723.723,0,0,0-.515-.23c-.115,0-.171,0-.229.049l-1.076.573a.724.724,0,0,0-.229.8,1.424,1.424,0,0,1,.049.335.892.892,0,0,1-.874.908h-.091a.613.613,0,0,0-.515.516,4.885,4.885,0,0,0-.115.851,2.261,2.261,0,0,0,.115.851.6.6,0,0,0,.515.516h.056a.894.894,0,0,1,.905.908c0,.115-.049.286-.049.335a.713.713,0,0,0,.229.8l1.02.573a.518.518,0,0,1,.286-.057.6.6,0,0,0,.515-.23c.115-.115.449-.45.734-.45a1.277,1.277,0,0,1,.734.45.723.723,0,0,0,.515.23.591.591,0,0,0,.286-.049l1.02-.573a.724.724,0,0,0,.229-.8,1.339,1.339,0,0,1-.049-.335.894.894,0,0,1,.905-.908h.049a.613.613,0,0,0,.515-.516,4.055,4.055,0,0,0,.115-.851,3.184,3.184,0,0,1-.16-.795Zm-4.145,1.588a.742.742,0,0,1-.734-.736.742.742,0,0,1,.734-.736.742.742,0,0,1,.734.736.743.743,0,0,1-.734.736Zm.278-2.275a1.555,1.555,0,0,0-1.82,1.874,1.579,1.579,0,0,0,1.249,1.252,1.538,1.538,0,0,0,1.82-1.825,1.568,1.568,0,0,0-1.249-1.3Zm0,0" transform="translate(522.638 -675.757)"/></g></g></svg>