<?xml version="1.0" standalone="no"?><!DOCTYPE svg PUBLIC "-//W3C//DTD SVG 1.1//EN" "http://www.w3.org/Graphics/SVG/1.1/DTD/svg11.dtd"><svg t="1686549885894" class="icon" viewBox="0 0 1024 1024" version="1.1" xmlns="http://www.w3.org/2000/svg" p-id="2451" width="128" height="128" xmlns:xlink="http://www.w3.org/1999/xlink"><path d="M512 401.871238c113.273905 0 221.915429 42.422857 302.006857 117.955048l-56.710095 53.467428c-135.484952-127.73181-355.108571-127.73181-490.593524 0L209.968762 519.801905c80.091429-75.53219 188.732952-117.955048 302.031238-117.955048z m438.857143-11.068952l-56.734476 53.491809c-101.327238-95.573333-238.811429-149.26019-382.122667-149.26019-143.36 0-280.795429 53.686857-382.147048 149.26019L73.142857 390.802286c242.371048-228.498286 635.343238-228.498286 877.714286 0zM672.182857 653.55581c-88.478476-83.407238-231.887238-83.407238-320.365714 0L512 804.571429l160.182857-151.015619z" p-id="2452" fill="#c0c4cc"></path></svg>