<svg xmlns="http://www.w3.org/2000/svg" xmlns:xlink="http://www.w3.org/1999/xlink" width="136.984" height="32" viewBox="0 0 136.984 32"><defs><style>.a,.b{fill:#fff;}.b{font-size:15px;font-family:SourceHanSansCN-Bold, Source Han Sans CN;font-weight:700;letter-spacing:0.05em;}.c{clip-path:url(#a);}</style><clipPath id="a"><rect class="a" width="36.405" height="32"/></clipPath></defs><g transform="translate(-30.942 -19)"><text class="b" transform="translate(79.926 41)"><tspan x="0" y="0">EasyPower</tspan></text><g transform="translate(30.942 19)"><g class="c"><path class="a" d="M9.959,21.121a1.759,1.759,0,0,1-.539-.086,14.886,14.886,0,0,1-6.51-4.619A15.409,15.409,0,0,1,.157,5.4,4.231,4.231,0,0,1,1.777,2.422a6.422,6.422,0,0,1,5.283-.289,6.109,6.109,0,0,1,4,3.672,10.567,10.567,0,0,1-.61,7.329,1.724,1.724,0,0,1-2.285.743A1.647,1.647,0,0,1,7.4,11.644a7.345,7.345,0,0,0,.425-4.788A2.926,2.926,0,0,0,5.955,5.28a4.55,4.55,0,0,0-1.22-.234,1.191,1.191,0,0,0-1.242,1.02A12.394,12.394,0,0,0,5.636,14.42a11.519,11.519,0,0,0,4.869,3.461,1.657,1.657,0,0,1,1.065,2.108,1.7,1.7,0,0,1-1.611,1.132" transform="translate(0 -0.763)"/><path class="a" d="M24.051,32a1.7,1.7,0,0,1-1.479-.842c-.168-.29-4.061-7.21.206-16.734A24.6,24.6,0,0,1,32.634,3.584c1.559-.964,9.459-5.619,11.923-2.554,2.486,3.09-.969,8.772-5.483,12.55-4.131,3.459-10.953,6.255-11.241,6.372a1.718,1.718,0,0,1-2.227-.9,1.65,1.65,0,0,1,.917-2.175c.065-.027,6.616-2.714,10.335-5.827,3.246-2.718,4.785-5.531,5.085-7.015a.569.569,0,0,0-.689-.662,25.53,25.53,0,0,0-6.8,3.018A21.329,21.329,0,0,0,25.9,15.756c-3.555,7.936-.489,13.538-.357,13.772a1.647,1.647,0,0,1-.66,2.259,1.735,1.735,0,0,1-.831.212" transform="translate(-8.984 0)"/></g></g></g></svg>