<svg xmlns="http://www.w3.org/2000/svg" width="151.382" height="39.836" viewBox="0 0 151.382 39.836"><defs><style>.a,.b{fill:#fff;}.b{font-size:15px;font-family:SourceHanSansCN-Bold, Source Han Sans CN;font-weight:700;letter-spacing:0.05em;}</style></defs><g transform="translate(-16 -16)"><g transform="translate(16 16)"><g transform="translate(0 7.219)"><path class="a" d="M87.717,334.91l6.737-24.961a.2.2,0,0,1,.315-.118l9.719,6.986a.2.2,0,0,1-.188.356l-7.536-2.806a.2.2,0,0,0-.267.144l-4.575,15.836a.2.2,0,0,0,.176.249l2.689.284a.2.2,0,0,1,.078.379l-6.851,3.877A.2.2,0,0,1,87.717,334.91Z" transform="translate(-87.712 -309.793)"/></g><path class="a" d="M256.942,293.322l-24.8,9.481a.2.2,0,0,0-.051.35l7.524,4.722a.2.2,0,0,1-.038.344l-17.29,6.866a.2.2,0,0,0,.139.38l25.265-6.789a.2.2,0,0,0,.046-.374l-7.85-4.411a.2.2,0,0,1-.007-.35l17.241-9.857A.2.2,0,0,0,256.942,293.322Z" transform="translate(-213.662 -287.134)"/><g transform="translate(9.461 18.878)"><path class="a" d="M237.357,496.337a.212.212,0,0,1-.012-.405l7.422-2.522a.069.069,0,0,1,.062.12l-3.446,2.522a.212.212,0,0,0-.03.3l1.547,1.37a.069.069,0,0,1-.063.118Z" transform="translate(-237.201 -493.406)"/></g><g transform="translate(21.164)"><path class="a" d="M443.386,235.912l-21.152-11.258a.2.2,0,0,1,.168-.369l18.909,7.334a.2.2,0,0,0,.27-.142l8.393-29.933a.2.2,0,0,0-.226-.248l-3.693.532a.2.2,0,0,1-.14-.371l8.111-5.323a.2.2,0,0,1,.308.217l-10.657,39.429A.2.2,0,0,1,443.386,235.912Z" transform="translate(-422.125 -196.1)"/></g></g><text class="b" transform="translate(79.382 41)"><tspan x="0" y="0">EasyPower</tspan></text></g></svg>