<svg xmlns="http://www.w3.org/2000/svg" xmlns:xlink="http://www.w3.org/1999/xlink" width="375" height="110" viewBox="0 0 375 110"><defs><style>.a{opacity:0.5;}.b{fill:url(#a);}</style><linearGradient id="a" x1="0.5" y1="0.09" x2="0.5" y2="1" gradientUnits="objectBoundingBox"><stop offset="0" stop-color="#638ae3" stop-opacity="0"/><stop offset="1" stop-color="#638ae3" stop-opacity="0.302"/></linearGradient></defs><g class="a" transform="translate(95.65 -2677.712)"><path class="b" d="M277.721,2780.4c-1.072.1-2.16.024-3.241.026q-.142-2.718-.285-5.435c-1.579-.542-3.231.046-4.822-.307-.007-.116-.015-.232-.022-.348h0c.009-1.833.031-3.667.016-5.5,0-.455.2-1.181-.529-1.189-1.073-.011-2.216-.439-3.219.313h0l-.019.661h0a1.943,1.943,0,0,1-.322.013l-1.023-5.061s-2.748-.163-4.12-.21c-.838-.028-1.041-.266-1.033-1.048.045-4.366.042-8.732.056-13.1.487-.006.644-.229.607-.718s-.365-.458-.678-.459c-.551,0-7.579-.032-9.163-.041a1.8,1.8,0,0,0-.411-1.6,2.8,2.8,0,0,0,0-1.667c-.61-.815.309-1.958-.571-2.716-.114-1.171.375-2.463-.715-3.437h0q-.041-1.479-.083-2.958c.01-.038.034-.079.027-.113a1.617,1.617,0,0,0-.077-.208h0a1.58,1.58,0,0,0-1.892,0h0l-.156,3.346-.489.008a.215.215,0,0,1-.072-.04.39.39,0,0,0,.072.04c-.347-.395.486-1.326-.646-1.368-.5-.019-.923,0-.746.681l-.072.6-3,.052c-.26-.856.418-1.847-.388-2.624l-.394-.361c.023-2.286.023-2.286-2.291-2.285-.4,0-.794.029-1.187,0-1.513-.126-3-.257-2.65,2.018.026.164-.211.367-.326.552-.026,0-.048.035-.068.087-.61.79-.1,1.737-.306,2.583-1.161-.043-.733.855-.736,1.39-.029,5.283-.019,10.567-.02,15.851-1.8-.141-3.635.417-5.394-.323q0-13.3-.008-26.592,0-8.264.008-16.526a.227.227,0,0,0-.019-.3c-.426-.669-12.393-.169-15.509-.209-.381,0-.493.18-.425.52q-.024,8.757-.047,17.515l-7.153.055c.118-.317.394-.384.688-.421,1.025-.11.657-.906.658-1.43q.02-16.61-.007-33.219h0c-2.312-.9-14.633-3.064-14.633-3.064-5.767-1.455-11.624-2.494-17.452-3.671h0c-.405.008-.639.172-.528.607.344,1.349.07,2.73.23,4.089h0l-.006,1.365c.075,1.134-.3,2.306.285,3.4v0q.028,1.835.056,3.67h0c.076,1.13-.322,2.3.29,3.385h0q.017,1.489.034,2.977h0l-.014.37-.717.06-1.965-.153q0-1.267,0-2.535a1.29,1.29,0,0,0,1.088-.653h0l-.058-.014c.772-.713.845-1.41-.047-2.087-.58-.754-1.233-1.107-2.083-.366-1.117.9-1.118,1.817-.026,2.741l.377.335c.472,1.6-.209,2.316-1.527,2.546-.176.021-.351.043-.527.065-.809.15-1.685-.106-2.436.393.323.672.884.3,1.307.227a14.865,14.865,0,0,1,3.171-.192q-.027,2.986-.053,5.971c-1.112.108-2.268-.144-3.328.394,1,.819,2.027-.267,3.035.036q.046,1.849.091,3.7h0q0,.832,0,1.666h.108l.107.012c0-.028,0-.058.005-.086.013.026.026.052.042.079l-.047.007-.215-.011q-.047,2.664-.094,5.327c-.4.648-.142,1.39-.307,2.071l-.646-.256q-.1.3-.205.592a.4.4,0,0,0,.122.255l-.416.394-.232.046-.427.367-3,.006h-2.024l-4.432-.063-2.846-.33h0a.626.626,0,0,0-.214-.292,2.576,2.576,0,0,0,.442-2.344.457.457,0,0,0-.117-.1,1.05,1.05,0,0,0,.452-1.494h.02a1.141,1.141,0,0,0,.7-.795c0-.009,0-.017,0-.025.375.232.686.67,1.234.335l-1.366-.7h0l-.032-.6-.95-.02c.006.552.458,1.1.02,1.658a3.228,3.228,0,0,0-.448,1.677c-.562.559-.246,1.291-.389,1.932l-.266.766h0l-4.33-.046a2.267,2.267,0,0,1,.214-.815c.1-.128.222-.247.339-.366.069-.046.141-.091.215-.136,1.177-.247,1.428-.752,1.252-2.039l-.17.008a1.573,1.573,0,0,0,.159-.108c-.834-1.07-2.056-.58-3.113-.756l1.277-3.473.05-.1.738.1c-.664-.412-.226-.9-.1-1.374h0l.753-1.308,1.155-1.626h0l1.219-1.421c-1.074-.172-1.2.778-1.649,1.352a2.572,2.572,0,0,0-1.027,1.35h0l-.743.977h0l-.57,1.394-1.764-.756c.007-.583.124-1.2-.467-1.61a1.249,1.249,0,0,0-1.108-.612,1.685,1.685,0,0,0-1.8,1.172c-.137.456-.6,1.381.587,1.469a.634.634,0,0,0,.053.324,1.343,1.343,0,0,0,2.129,0c.2.006.246-.115.23-.283a1.36,1.36,0,0,0,.3-.132c.446.408,1.273.325,1.444,1.089-.3,1.145-1.519,2.105-.736,3.468-.457.172-.72.686-1.3.663-3.075-.12-6.159.214-9.229-.183.178-.534-.227-1.16.266-1.645.64-.842-.1-.614-.5-.613-2.1,0-4.207.016-6.31.026-.112.064-.3.109-.322.2a.336.336,0,0,0,.285.438c.5,1.757-.534,1.85-1.887,1.793-1.663-.07-1.665-.007-1.154,1.574l.155.067.169-.015c.2,1.045,1.118.489,1.675.737h0q.01,2.748.021,5.5l-.031-.021H118.3c0,.138,0,.277.006.415l.833.051q.243,5-.006,10c-.683.061-1.378-.22-2.054.067a13.448,13.448,0,0,0-.939,4.1q-.068.446-.136.891a7.061,7.061,0,0,0-.538,2.479l-.113.924h0l-.518,1.524-.181-.038v-10.185c.022-8.142.017-16.284.1-24.426.01-.925-.636-.854-1.067-1.169l-.053-13.143a.236.236,0,0,0-.148-.08c-1.47-.78-3.057-.107-4.575-.289-.336-1.678.152-3.4-.292-5.074a.71.71,0,0,0-.767-.178c-1.408.251-1.854-.3-1.738-1.687a4.912,4.912,0,0,0-.277-1.744h-1.763s.02,2.221.026,3.332c-.854.324-1.83-.236-2.646.358a.233.233,0,0,0-.013.314q-.01,2.186-.02,4.372h0a.144.144,0,0,0-.04.237c-1.247.013-2.5.073-3.741.024-.82-.033-1.176.091-1.157,1.056.079,4.029.054,8.06.067,12.09h0l-.28.385c-.78-.146-.779.333-.771.885.03,2.166.036,4.333.052,6.5l-1.99,1.025c-.5-.554-.908.11-1.368.091l-.675-.058c.24-1.331-.771-.884-1.378-.9-1.286-.037-.57.929-.722,1.466-.015.034-.028.066-.043.1a15.877,15.877,0,0,1-4.229,1c-.352-.991-1.112-1.109-2.138-.333-.632,1.605-1.93,1.841-3.445,1.629.04-.71.915-1.148.659-1.956.006-1.1-.013-2.194.027-3.29.027-.733-.162-1.187-1.018-1.05h0l-.68-.033q-.023-13.3-.044-26.6h0c-.847-.685-1.852-.343-2.755-.3-1.353.067-1.714-.393-1.725-1.7-.015-1.794.431-3.633-.292-5.394l-1.682-.029c.658-3.351.2-6.734.286-10.1-.342-.558-.9-.352-1.381-.355-2.487-.013-14.572-.665-16.371.008l-.264.343h0q-.021,7.1-.046,14.2a6.4,6.4,0,0,1-.167,2.626c-.409.832-1.576.129-2.341.471a1.117,1.117,0,0,0-.249.216q.013,10.786.026,21.572c0,.091,0,.182,0,.273-3.69.025-7.38.033-11.069.093-.494.008-1.14-.385-1.5.328a.249.249,0,0,0,.008.305c.083.976-.2,1.535-1.365,1.385-.4-.051-1.257-.412-1.1.646l-.376.637c-.578.045-1.2-.268-1.8.206.6.462,1.217.162,1.795.206l.36.3q0,12.95,0,25.9l-3.378.005c-.426-1.522.225-3.119-.336-4.631l-.346-.083a10.058,10.058,0,0,0-1.568-.272c-2.547-.052-5.1-.048-7.643-.064q0-17.5.009-34.991l.008.008c.723-.272.705-.587-.04-.679a18.816,18.816,0,0,0-2.377-.012l-.309-.367q-.005-1.838-.01-3.677h0l.362-.309a.541.541,0,0,0,.1-.132c.016-.047.018-.143,0-.152-.935-.4-1.9.026-2.846-.1a15.714,15.714,0,0,1,.07-2.393c.143-.827-.394-.558-.768-.607h0l-.356-.354c-.017-.041-.029-.082-.044-.122a1.218,1.218,0,0,1,.044.122c-.1-.661.335-1.411-.333-1.979h0c-.332-.013-3.908.124-3.776,1.212.06.5.053,1.03-.673,1.093-.659.057-.382.488-.366.843.033.713.026,1.429.035,2.144-.9.264-1.937-.421-2.747.408h0l.351.328q-.017,2.02-.035,4.041h0a1.2,1.2,0,0,0-.318.018,15.618,15.618,0,0,0-2.38,0c-.764.109-.395.435-.007.667,0,8.214.03,16.429-.014,24.643-.006,1.2.236,1.746,1.578,1.642,1.521-.118,3.058-.045,4.587-.055h0c.307.144.76-.177,1.021.358H3.786c-.051-.585-.226-1.194.339-1.657a1.23,1.23,0,0,0,.149-.216c.009-.02-.068-.112-.107-.113-1.5-.026-3.008-.045-4.513-.064h0s.005-4.042-.005-6.058c-.014-2.606,0-2.606-2.621-2.671-.465-.7.927-2.008-.77-2.311-.362-.085-.751.71-1.092-.034V2714.7l-.634.012v6.426l-.643,0q-.054-3.854-.109-7.71a.971.971,0,0,0-.028-.165c-.015-.045-.045-.117-.075-.12-.792-.085-.4.5-.4.778-.06,2.406-.084,4.813-.119,7.22-.326.084-.828-.3-.944.344a39.191,39.191,0,0,0-.711,6.292c.093,9.119.013,18.239.064,27.359.007,1.18-.293,1.557-1.494,1.46-1.577-.127-3.168-.082-4.753-.11,0-.109,0-.217-.007-.326h0q.006-2.441.011-4.881.017-20.619.033-41.237h0l.313-.318c.8-1.871-.943-.652-1.337-1.072h0a2.282,2.282,0,0,0-.031-.293c.214-1.26-.2-1.763-1.612-1.723-3.667.1-7.339.049-11.009.058h0q-.167-.033-.336-.055c-.059-3-.059-3-3.072-3a1.9,1.9,0,0,0-.34,0,1.609,1.609,0,0,1-2.109-1.333h0c-1.313-.806-4.337-.983-4.418,1.645-.028.911.385,1.906-.345,2.74-1.878-.3-1.235,1.12-1.394,1.992h0c-1.144-.034-2.084.088-1.212,1.567a3.326,3.326,0,0,1,.23,1.809q.015,10.262.013,20.524c-.006.109-.013.218-.02.328h0a1.456,1.456,0,0,1-.3.046h0c-2.443-.009-4.885-.04-7.328-.012-.642.008-1.379-.291-1.91.359a.409.409,0,0,0,.037.291l-.046,3.381c-.673.029-1.345.08-2.018.081-.472,0-.925-.052-.946.614-.017.562.059,1.031.807.921.892-.131.838.451.836,1.033-.009,1.948-.034,3.9.015,5.843.02.792-.224,1.029-1.043,1.05-1.129.028-2.3-.351-3.393.244l-.017.312q.007,4.211.013,8.423l-.087.575h0l-1.334.125h0c-.563.215-.238.676-.246,1.007-.056,2.465-.071,4.929-.1,7.394h0l-3.071.057-.347,0-1.256-.073a.775.775,0,0,1-.315-.587,2.484,2.484,0,0,0,.315.587,18.86,18.86,0,0,0-.035-2.487c-.1-.729.5-1.606-.412-2.185h0c-1.846-.019-3.691-.043-5.537-.055-.471,0-1.107-.177-.889.694q-.057,3.365-.113,6.732l-.62.336c-2.2-.01-4.406-.006-6.609-.038-.752-.011-1.395.013-1.236,1.026-.013.109-.024.219-.032.329h0c-2.2.018-4.4.021-6.6.068-.517.011-1.158-.282-1.509.4h0c.017,1.448-.019,2.9.072,4.342.059.943-.347,1.048-1.172,1.077-1.015.036-2.079-.356-3.054.219q0,.337,0,.674-.062,2.122-.124,4.244c-1.22.037-2.441.119-3.658.083-.788-.024-1.09.15-1.058,1,.07,1.849.056,3.7.005,5.555-.023.82.112,1.174,1.091,1.12,1.757-.1,3.525,0,5.288,0q180.578,0,361.156,0c2.161,0,4.324-.06,6.484,0,.778.02.96-.208.938-.929a40.515,40.515,0,0,1,.018-4.879C279.457,2780.54,278.918,2780.288,277.721,2780.4Zm-126.54-60.961a.418.418,0,0,1-.034-.078Zm97.728,22.544h0Zm-69.758-12.7h.024c0,.006-.005.013-.007.02S179.156,2729.284,179.151,2729.278Zm-29.857,3.58c-.01-.015-.02-.027-.031-.042h.05C149.306,2732.829,149.3,2732.843,149.294,2732.857Zm-42.11-33.763h0c-.031,0-.057,0-.089.01C107.127,2699.1,107.156,2699.1,107.184,2699.094Zm-52.216-20.716h.06c-.02,0-.04.008-.06.013Zm156.751,34.041a.059.059,0,0,0,0,.009l-.011-.01Zm-39.618-3.668c.046-.012.094-.022.143-.031.655.681,1.619.415,2.455.534.057-.015.113-.033.168-.052a.674.674,0,0,0,.1.165l-.18.011c-1.059-.144-1.04.561-.984,1.25.1,1.257.236,2.511.357,3.767h0c-.02.14-.039.28-.058.42l-2.333-.346a.476.476,0,0,0-.1-.173.748.748,0,0,0-.839.025,13.236,13.236,0,0,0,.27-5.593A4.485,4.485,0,0,0,172.1,2708.751Zm-1.784,17.114a1.054,1.054,0,0,0,.215-.146,8.33,8.33,0,0,0-.1-5.52.551.551,0,0,0,.407-.185,5.324,5.324,0,0,0,.187-3.207,13.941,13.941,0,0,1-.3-1.378l.022-.349c.039,0,.078.008.117.007a1.523,1.523,0,0,0,.7-.184c.022-.019.043-.038.063-.057l2.5.538c.451.132.837.5,1.36.368l-.036.125.035.026c-.5.686-1.184,1.317-.709,2.3h0a1.107,1.107,0,0,0-.334,1.012c-1.067.416-1.111,1.363-1.216,2.279h0a2.044,2.044,0,0,0-.858,1.315,1.371,1.371,0,0,0-.3,1.429,1.625,1.625,0,0,0,.728-1.4,1.5,1.5,0,0,0,.5-1.347h0c.54-.306.458-1.083.988-1.4a6.445,6.445,0,0,1-.014,2.3,1.607,1.607,0,0,0,.03.471,1.923,1.923,0,0,0,.178.374.931.931,0,0,0,.328.957h0c0,.126,0,.251,0,.377a.18.18,0,0,0,.109.119c-.052.084-.107.167-.155.253-.824,1.626-.8,1.8.581,2.3l-1.186.385c-.443.219-1.034.112-1.356.6.539.4.942.1,1.337-.249l.981-.113c.076.418-.527,1.155.616,1.052,1.046-.094,2.108-.015,3.162-.012h0c.009.111.012.222.012.333l-4.789.071h0l-2.4-.079c.722.672,1.6.3,2.411.343a3.184,3.184,0,0,0,2.072.275h0l4.056.134a2.135,2.135,0,0,1,.01.26h0c-1.345,0-2.7.083-4.032-.016-1.18-.087-1.479.343-1.153,1.381l.055,0h0a3.639,3.639,0,0,0,.015,2.7c-.324-.092-.574-.453-.976-.261l1.389,1.57.015,0h0a.077.077,0,0,0-.015,0c-.577-.006-.633.274-.4.712h0c-.136.441.652.9-.022,1.329-.348.4-.121.745.1,1.091.053.063.111.121.169.179-.043.54.335.86.84,1.113l.943,1.582-.4.742-.347.056-1.3.635-.343-.354a.812.812,0,0,0-.422.684l.716.778h0c.011.146.021.292.031.439h-.007c-.2,0-.391-.006-.586,0-1.359.1-2.748-.234-4.082.269-.976.869-.218,2.182-.739,3.167q.021-1.666.042-3.333l.005,0a2.324,2.324,0,0,0,1.636-.239c-.006-.048-.016-.087-.025-.129l0,.005a.731.731,0,0,0,.751-.229c.57-.118,1.227.133,1.7-.394-.705-.49-1.369.183-2.061.071h0l-2.085-.06q.01-1.354.02-2.707h0a.181.181,0,0,0,.037-.229h0a17.829,17.829,0,0,0,.229-4.832q.016-2.263.032-4.525a1.15,1.15,0,0,0,.139-.038,2.479,2.479,0,0,0,.4-.219.945.945,0,0,0,.309.834,2.921,2.921,0,0,1,.3.248q.108.47.215.939c.027.53-.391,1.278.657,1.309l-.3-1.22a.764.764,0,0,1,.677-.371l-.357-.325.325-.34a2.153,2.153,0,0,0-1.306-1.619,1.635,1.635,0,0,0,.38-.283c.264-.4.088-.863.175-1.286a.854.854,0,0,0-.1-.432.327.327,0,0,0,.293-.02c.322-.391.749-.739.563-1.337-.52-.146-.751.319-1.105.525a1.062,1.062,0,0,0-.061-.179.68.68,0,0,0-.617-.269.493.493,0,0,1-.136.07A1.082,1.082,0,0,0,170.317,2725.865Zm-15.736,3.251a.291.291,0,0,0,.094.189,2.55,2.55,0,0,0,.262,1.667c.124.656-.139,1.389.412,1.958a1.875,1.875,0,0,0,.661,1.651l.3-.621a1.1,1.1,0,0,0-.648-1,.383.383,0,0,0,.142-.123,2.349,2.349,0,0,0-.413-2.116.983.983,0,0,0,.165-.231,1.165,1.165,0,0,0-.08-1.073.906.906,0,0,0,.2.111,3.975,3.975,0,0,0,2.678-.173.4.4,0,0,0,.1-.156c1.338.885,2.758.578,4.179.255a.407.407,0,0,0,.213-.227l.115.1.157-.059a1.15,1.15,0,0,1,.164-.038.825.825,0,0,0-.154.212c.98.982,2.171.518,3.3.464.345-.126.722-.179,1.054-.33l.441.035c.013.05.027.1.037.148.013.115.028.233.05.348a.925.925,0,0,0,.233.5.375.375,0,0,0,.058.016l-.37.972a.24.24,0,0,0,.192.076c-.008.019-.016.038-.024.057a1.146,1.146,0,0,0-.01,1.027c-.285.039-.367.318-.534.5h0a1.87,1.87,0,0,0-.615,1.363l.351.369c.07.47-.462.827-.254,1.322l.136-.019a2.139,2.139,0,0,0,.637-1.635c0-.013.009-.025.013-.04l0-.015a1.834,1.834,0,0,0,.674-1.521.767.767,0,0,0,.222.011c.737-.33.836-.989.919-1.655l.028.01q-.024,2.257-.048,4.513a9.2,9.2,0,0,0-.236,3.39q0,.838,0,1.676c-.325,1.063.81,3.059-1.764,2.685.24.908,1.015.631,1.627.712h0q-.141,2.16-.281,4.32h0L167,2748.8a2.2,2.2,0,0,1-.237-.14c-.1-.11-.205-.221-.317-.324a1.182,1.182,0,0,1-.15-.214q-.054-1.533-.108-3.066h0a1.789,1.789,0,0,0-1.881,0,10.545,10.545,0,0,0-.068,1.952c.167,1.157-.127,1.8-1.093,1.845a2.21,2.21,0,0,1-.281-.129c-.243-.467-.015-.976-.138-1.456-.413-.942.449-2.441-1.269-2.812-1.1.211-1.96.559-1.675,1.975.132.657-.329,1.01-1.023.981,0,.456.439.6.651.913-1.172.7-2.492.3-3.733.489-.6-.15-.612.21-.64.649-.032.5.114.735.639.671q.037,1.915.074,3.831a1.8,1.8,0,0,0-.185.135,1.234,1.234,0,0,0-.322,1.08.6.6,0,0,0,.394.308.524.524,0,0,0-.164.168c-.639,2.584-.21,5.208-.288,7.814v.007l-2.612.012a4.346,4.346,0,0,1-.908-.128c-.078-.033-.152-.071-.23-.1-.052-.024-.1-.046-.156-.069.076-.328.461-.6.309-.97a.848.848,0,0,0-.7.833.99.99,0,0,0-.537.028v-.024a1.96,1.96,0,0,0,.085-1.927l-.024-.027c0-.025,0-.052.006-.077,0-.005,0-.011,0-.016.345.157.734.139.8-.235.1-.6-.324-.841-.856-.892,0-.029,0-.058,0-.087a.534.534,0,0,0,.076-.09,17.533,17.533,0,0,0,.012-7.054.42.42,0,0,0-.207-.2.779.779,0,0,0,.162-.441c-.012-1.138-.336-2.293.189-3.4a3.976,3.976,0,0,0,.413-.5,1.264,1.264,0,0,0,1.638-.483c.983-.773.321-1.677.208-2.537l-.578.015a1.141,1.141,0,0,0-1.377-.2,1.986,1.986,0,0,0-.417-1.65,13.5,13.5,0,0,1-.068-3.79,1.048,1.048,0,0,0-.016-.11c.076-.028.152-.058.227-.091.018-.008.032-.02.049-.029a6.138,6.138,0,0,0,1.006,1.747,5.312,5.312,0,0,0,1.279,1.707l1.311,1.695,2.079,1.682a4.2,4.2,0,0,0,1.983,1.295c-.079-1-1.06-1.086-1.637-1.581l-2.069-2.086c.451-.358,1.214-.483,1.02-1.324l-1.355,1.065-1.037-1.073-1.284-1.761a3.937,3.937,0,0,0-1-1.585.784.784,0,0,0,.059-.058,1.507,1.507,0,0,0-.51-1.714c-.118-.047-.242.044-.27.032l-.009,0,.016-.022a.544.544,0,0,1-.025-.274.278.278,0,0,0,.049-.06,1.457,1.457,0,0,1,.592-.478.98.98,0,0,0,.14-.144,1.89,1.89,0,0,0,1.265-.389l1.327-.375h0c.377-.23.953-.073,1.181-.592-.6-.323-1.053-.033-1.493.33h0l-1.014.383a1.29,1.29,0,0,1-1.106-.015,1.109,1.109,0,0,0-.185-.493c-.154-.193-.309-.385-.452-.587v0c.535-1.807.162-3.662.064-5.5,0-.011-.01-.02-.015-.031C151.894,2729.479,153.217,2729.936,154.582,2729.116ZM138.31,2722.9l0,0h0Zm-64.494-28.264c.146-.06.032.049-.081.048v-.05A.081.081,0,0,0,73.817,2694.633Zm-19.2-16.258h0Z" transform="translate(0)"/><path class="b" d="M654.069,2757.988l.823,2.011-1.229.66c.5.7,1.007-.193,1.51,0l.423,1.664c.22.464.133,1.056.592,1.421h0l.387,1.011c-.094.586.6,1.059.244,1.683l.135-.115a.475.475,0,0,1-.135.115c-.463.167-1,.188-1.294.682.617.254,1.1-.244,1.66-.3l.464,1.306c.218.465.135,1.053.586,1.423a1.869,1.869,0,0,0,.71,1.412c.127-.643-.32-1.147-.423-1.734h0c-.193-.48-.134-1.063-.59-1.434l-.332-.822c.014,0,.028,0,.042,0,.469-.145,1.015-.194,1.042-.868-.473-.577-.967.176-1.447-.023a1.855,1.855,0,0,0-.393-1.328l-.367-1.332c-.2-.474-.135-1.061-.6-1.428.139-.591-.582-1.02-.307-1.636l-.122.091a.411.411,0,0,1,.122-.091,1.348,1.348,0,0,0,1.011-.36c.49-.117,1.228.222,1.287-.694a3.545,3.545,0,0,0-1.658.391c-.412-.211-.686.116-1.008.257l-.721-2.03.213-.309c1.217-1.219,1.179-1.648-.212-2.417-.789-1.321-1.411-.673-2.015.172l0,.008,0-.008c-.757.628-.581,1.282-.055,1.947C652.767,2758.034,653.393,2758.072,654.069,2757.988Zm-1.571-2.595-.041.035v-.031h0Z" transform="translate(-492.324 -50.945)"/><path class="b" d="M636.016,2777.45l.436-.234h0l.561.091c.045-.906.957-1.093,1.39-1.676l1.387-1.014,1.493-.916h0c.463-.311,1.479.02,1.258-1.084a5.273,5.273,0,0,0-1.792,1.006h0c-.472.178-1.008.235-1.325.7l-1.371,1.017-1.335,1.049-1.365-1C635.134,2776.213,636.646,2776.5,636.016,2777.45Z" transform="translate(-481.374 -62.953)"/><path class="b" d="M635.337,2780.635l.02.014c0-.014,0-.028.009-.044Z" transform="translate(-481.377 -68.23)"/><path class="b" d="M635.35,2780.6l-.037,0c0,.01,0,.021.008.032Z" transform="translate(-481.362 -68.226)"/><path class="b" d="M626.459,2774.24c.683.894,1.462,1.2,2.423.4l.311.02c-.19-.656.5-1.306.023-1.963h0l-.268-.378c-.323-.922-1.042-.772-1.752-.644a1.231,1.231,0,0,0-1.021.967C626.063,2773.208,625.779,2773.809,626.459,2774.24Z" transform="translate(-475.242 -62.257)"/><path class="b" d="M651.144,2796.665c-.514.737-1.1-.1-1.639.074.127.361.694.357.686.829.291.44.43-.048.639-.106A.652.652,0,0,0,651.144,2796.665Z" transform="translate(-490.708 -78.885)"/><path class="b" d="M633.225,2808.447c.173.475.723.366,1.016.655C634.3,2808.263,633.818,2808.271,633.225,2808.447Z" transform="translate(-479.987 -86.633)"/><path class="b" d="M663.486,2811.847c.63.557.881,1.594,1.976,1.565C664.838,2812.846,664.6,2811.793,663.486,2811.847Z" transform="translate(-499.914 -88.955)"/><path class="b" d="M674.892,2810.229a3.321,3.321,0,0,0-.594-1.655,1,1,0,0,0-.377-.97c-.573.48.094.9.061,1.36C674.307,2809.37,673.971,2810.251,674.892,2810.229Z" transform="translate(-506.632 -86.148)"/><path class="b" d="M677.973,2818.544c-.524.708.031,1.212.334,1.764C678.636,2819.637,678.142,2819.121,677.973,2818.544Z" transform="translate(-509.312 -93.398)"/><path class="b" d="M662.517,2821.683c.154.651.843.614,1.235.96C663.933,2821.561,663,2821.917,662.517,2821.683Z" transform="translate(-499.276 -95.475)"/><path class="b" d="M649.484,2815.671c.144.667.85.608,1.24.959C650.9,2815.548,649.976,2815.888,649.484,2815.671Z" transform="translate(-490.694 -91.488)"/><path class="b" d="M658.558,2819.42l-.961-.627C657.425,2819.756,658.021,2819.544,658.558,2819.42Z" transform="translate(-496.017 -93.557)"/><path class="b" d="M642.076,2849.634c.354-.52-.008-.827-.341-1.142-.2.05-.339.154-.333.383C641.782,2848.99,641.607,2849.6,642.076,2849.634Z" transform="translate(-485.371 -113.255)"/><path class="b" d="M685.721,2820.767c-.985.032-.9.618-.669,1.285Z" transform="translate(-514.017 -94.87)"/><path class="b" d="M652.33,2856.436l1.871-1.876C653.15,2854.758,652.395,2855.253,652.33,2856.436Z" transform="translate(-492.568 -117.284)"/><path class="b" d="M669.086,2839.708a5.442,5.442,0,0,0-1.613,1.607C668.375,2841.144,669.055,2840.751,669.086,2839.708Z" transform="translate(-502.541 -107.433)"/><path class="b" d="M672.925,2833.337c-.589-.328-1.036-.058-1.452.344C672.08,2834.087,672.515,2833.765,672.925,2833.337Z" transform="translate(-505.174 -103.105)"/><path class="b" d="M651.073,2861.866c.2-.416-.138-.663-.3-.967-.32-.031-.4-.55-.813-.393C650.234,2861.041,650.45,2861.619,651.073,2861.866Z" transform="translate(-491.009 -121.205)"/><path class="b" d="M646.172,2841.034l-.647.091c.019-.3.33-.623-.055-.886a.32.32,0,0,0-.3.005c-.42.34.055.706-.014,1.062-.208.133-.591-.018-.63.389C645.2,2841.786,645.861,2841.847,646.172,2841.034Z" transform="translate(-487.429 -107.761)"/><path class="b" d="M651.477,2841.49c-.537-.272-1.038-.342-1.419.255A1.221,1.221,0,0,0,651.477,2841.49Z" transform="translate(-491.072 -108.474)"/><path class="b" d="M662.691,2836.344c.452-.042.891-.1.977-.673a1.548,1.548,0,0,0-1.286.4c-.365.3-1.308-.05-1.046.942Z" transform="translate(-498.468 -104.754)"/><path class="b" d="M657.324,2869.453c.764-.151.595-1.207,1.336-1.378.364-.458.448-.9-.083-1.3l-.58.6C658.155,2868.187,657.129,2868.623,657.324,2869.453Z" transform="translate(-495.84 -125.391)"/><path class="b" d="M689.727,2834.619c.178-1.064-.748-.706-1.214-.941C688.653,2834.334,689.343,2834.279,689.727,2834.619Z" transform="translate(-516.396 -103.429)"/><path class="b" d="M662.31,2863.339l.873-1.58C661.989,2861.787,661.873,2862.411,662.31,2863.339Z" transform="translate(-498.986 -122.057)"/><path class="b" d="M664.139,2870.575l-1.228-.007a1.167,1.167,0,0,1,.49,1.425c.32-.281.376-.935,1.038-.728.618.366,1.214.851,1.988.362l-1.686-.614C664.534,2870.875,664.1,2871.051,664.139,2870.575Z" transform="translate(-499.536 -127.897)"/><path class="b" d="M662.089,2877.417l.659-1.67A1.143,1.143,0,0,0,662.089,2877.417Z" transform="translate(-498.895 -131.334)"/><path class="b" d="M692.79,2848.3c-.172-.348-.053-.879-.617-.981C691.974,2847.9,692.055,2848.309,692.79,2848.3Z" transform="translate(-518.744 -112.478)"/><path class="b" d="M667.036,2865.519l.631-1.619C666.811,2864.188,666.693,2864.764,667.036,2865.519Z" transform="translate(-502.134 -123.476)"/><path class="b" d="M671.432,2852.911c1.131.125.5-.95.9-1.322l-.136.02C671.616,2851.851,671.734,2852.5,671.432,2852.911Z" transform="translate(-505.147 -115.31)"/><path class="b" d="M693.631,2863.227c-.162-.544-.153-1.157-.632-1.573C692.649,2862.4,692.727,2862.981,693.631,2863.227Z" transform="translate(-519.222 -121.986)"/></g></svg>