<svg xmlns="http://www.w3.org/2000/svg" width="24" height="24" viewBox="0 0 24 24"><defs><style>.a{fill:none;}</style></defs><g transform="translate(-256 -474)"><path d="M-155.84,532.85a2.054,2.054,0,0,1-1.8-2.229V515.49a2.058,2.058,0,0,1,1.809-2.232h19.874l.513,0a2.055,2.055,0,0,1,1.8,2.232V530.62a2.053,2.053,0,0,1-1.8,2.229Zm-.03-1.275h20.454l-6.947-7.464-1.223,1.3a2.7,2.7,0,0,1-2.059.9,2.735,2.735,0,0,1-2.057-.9l-1.223-1.3Zm14.258-8.439,6.936,7.567V515.776Zm-15,7.565,6.934-7.567-6.934-7.359Zm9.215-7.017c.772.834,1.329,1.223,1.751,1.223s.978-.389,1.751-1.224l8.528-9.151h-20.558Z" transform="translate(413.645 -37.258)"/><rect class="a" width="24" height="24" transform="translate(256 474)"/></g></svg>