<svg xmlns="http://www.w3.org/2000/svg" width="24" height="24" viewBox="0 0 24 24"><defs><style>.a{fill:none;}</style></defs><g transform="translate(-253 -388)"><g transform="translate(516.266 -123.397)"><path d="M-232.641,581.228a1.877,1.877,0,0,1-1.794-1.946,1.877,1.877,0,0,1,1.794-1.946,1.877,1.877,0,0,1,1.793,1.946,1.877,1.877,0,0,1-1.793,1.946Zm0-2.934a.951.951,0,0,0-.91.988.951.951,0,0,0,.91.987.951.951,0,0,0,.91-.987.953.953,0,0,0-.91-.988Zm0,0" transform="translate(-18.623 -47.955)"/><path d="M-245.626,534.439a1.546,1.546,0,0,0,1.477-1.6V513.958a1.546,1.546,0,0,0-1.477-1.6h-11.279a1.546,1.546,0,0,0-1.477,1.6v18.878a1.545,1.545,0,0,0,1.477,1.6Zm-11.279.958a2.47,2.47,0,0,1-2.361-2.561V513.958a2.469,2.469,0,0,1,2.361-2.561h11.279a2.469,2.469,0,0,1,2.36,2.561v18.878a2.47,2.47,0,0,1-2.36,2.561Z" transform="translate(0 0)"/><path d="M-232.3,519.12h-3.715a.463.463,0,0,1-.442-.479.463.463,0,0,1,.442-.479h3.715a.463.463,0,0,1,.442.479.463.463,0,0,1-.442.479Zm0,0" transform="translate(-17.107 -4.92)"/><path d="M-240.42,526.783a.444.444,0,0,1,.425.46v9.8a.444.444,0,0,1-.425.46h-9.236a.444.444,0,0,1-.425-.46v-9.8a.444.444,0,0,1,.425-.46h9.236m0-.958h-9.236a1.368,1.368,0,0,0-1.308,1.418v9.8a1.368,1.368,0,0,0,1.308,1.418h9.236a1.368,1.368,0,0,0,1.308-1.418v-9.8a1.368,1.368,0,0,0-1.308-1.418Zm0,0" transform="translate(-6.227 -10.493)"/></g><rect class="a" width="24" height="24" transform="translate(253 388)"/></g></svg>