<svg xmlns="http://www.w3.org/2000/svg" xmlns:xlink="http://www.w3.org/1999/xlink" width="128" height="128" viewBox="0 0 128 128"><defs><style>.a{fill:url(#a);}.b{fill:#fff;}.c{filter:url(#b);}</style><linearGradient id="a" x1="0.5" x2="0.5" y2="1" gradientUnits="objectBoundingBox"><stop offset="0" stop-color="#ffcd93"/><stop offset="1" stop-color="#ff8900"/></linearGradient><filter id="b" x="0" y="0" width="128" height="128" filterUnits="userSpaceOnUse"><feOffset dy="8" input="SourceAlpha"/><feGaussianBlur stdDeviation="8" result="c"/><feFlood flood-color="#f70" flood-opacity="0.239"/><feComposite operator="in" in2="c"/><feComposite in="SourceGraphic"/></filter></defs><g transform="translate(-972 -202)"><g class="c" transform="matrix(1, 0, 0, 1, 972, 202)"><rect class="a" width="80" height="80" rx="4" transform="translate(24 16)"/></g><path class="b" d="M613.131,672.523a10.972,10.972,0,0,1,0-21.944h.015a10.864,10.864,0,0,1,7.743,3.213,10.972,10.972,0,0,1-7.762,18.73Zm0-19.109a8.137,8.137,0,1,0,8.137,8.137A8.146,8.146,0,0,0,613.135,653.414ZM577.525,672.5a1.419,1.419,0,0,1-1.417-1.417,23.806,23.806,0,0,1,4.7-14.274,24.05,24.05,0,0,1,11.951-8.582l.615-.2-.53-.369a12.7,12.7,0,1,1,7.261,2.279h0c-.184,0-.371,0-.556-.012h-.022a21.043,21.043,0,0,0-20.588,21.156A1.419,1.419,0,0,1,577.525,672.5Zm22.582-25.4a9.877,9.877,0,1,0-.526-.015h.011l.515-.007Zm13.029,21.64a1.4,1.4,0,0,1-1.2-.667l-.092-.177-4.225-9.381a1.417,1.417,0,0,1,2.5-1.32l.085.165,2.949,6.549,3.039-6.57a1.417,1.417,0,0,1,2.635,1.029l-.066.172-4.338,9.378A1.386,1.386,0,0,1,613.136,668.745Z" transform="translate(435.892 -390.523)"/></g></svg>