<svg xmlns="http://www.w3.org/2000/svg" xmlns:xlink="http://www.w3.org/1999/xlink" width="128" height="128" viewBox="0 0 128 128"><defs><style>.a{fill:url(#a);}.b{fill:#fff;stroke:rgba(0,0,0,0);}.c{filter:url(#b);}</style><linearGradient id="a" x1="0.5" x2="0.5" y2="1" gradientUnits="objectBoundingBox"><stop offset="0" stop-color="#3EBCD4"/><stop offset="1" stop-color="#3EBCD4"/></linearGradient><filter id="b" x="0" y="0" width="128" height="128" filterUnits="userSpaceOnUse"><feOffset dy="8" input="SourceAlpha"/><feGaussianBlur stdDeviation="8" result="c"/><feFlood flood-color="#3EBCD4" flood-opacity="0.239"/><feComposite operator="in" in2="c"/><feComposite in="SourceGraphic"/></filter></defs><g transform="translate(-240 -203)"><g class="c" transform="matrix(1, 0, 0, 1, 240, 203)"><rect class="a" width="80" height="80" rx="4" transform="translate(24 16)"/></g><g transform="translate(276 231)"><path class="b" d="M1699.968-1151.881h-4.484l1.848-4.619a1.274,1.274,0,0,0-.129-1.186,1.274,1.274,0,0,0-1.053-.559h-6.364a1.273,1.273,0,0,0-1.163.756l-5.091,11.454a1.272,1.272,0,0,0,.095,1.211,1.272,1.272,0,0,0,1.067.579h4.922l-1.093,8.751a1.274,1.274,0,0,0,.31,1,1.274,1.274,0,0,0,.953.432,1.275,1.275,0,0,0,1.06-.568l10.182-15.273a1.273,1.273,0,0,0,.062-1.306A1.273,1.273,0,0,0,1699.968-1151.881Zm-8.251,11.354.6-4.833a1.273,1.273,0,0,0-.309-1,1.272,1.272,0,0,0-.955-.43h-4.4l3.961-8.909h3.657l-1.848,4.619a1.274,1.274,0,0,0,.129,1.186,1.274,1.274,0,0,0,1.053.559h3.985Z" transform="translate(-1664.332 1174.154)"/><path class="b" d="M1554.7-1259.878a19.112,19.112,0,0,0-19.091,19.091A19.113,19.113,0,0,0,1554.7-1221.7a19.113,19.113,0,0,0,19.091-19.091A19.113,19.113,0,0,0,1554.7-1259.878Zm0,35.636a16.565,16.565,0,0,1-16.545-16.546,16.565,16.565,0,0,1,16.545-16.545,16.565,16.565,0,0,1,16.546,16.545A16.565,16.565,0,0,1,1554.7-1224.242Z" transform="translate(-1526.696 1268.787)"/><path class="b" d="M1795.581-1382.864a1.273,1.273,0,0,0,1.273-1.273v-3.818a1.274,1.274,0,0,0-.636-1.1,1.273,1.273,0,0,0-1.273,0,1.273,1.273,0,0,0-.636,1.1v3.818A1.273,1.273,0,0,0,1795.581-1382.864Z" transform="translate(-1767.581 1389.228)"/><path class="b" d="M2030.755-1270.317a1.267,1.267,0,0,0,.9-.373l2.7-2.7a1.273,1.273,0,0,0,.329-1.229,1.272,1.272,0,0,0-.9-.9,1.272,1.272,0,0,0-1.229.329l-2.7,2.7a1.271,1.271,0,0,0-.278,1.388A1.271,1.271,0,0,0,2030.755-1270.317Z" transform="translate(-1986.556 1283.392)"/><path class="b" d="M2133.12-1000.538a1.273,1.273,0,0,0-1.1-.636H2128.2a1.272,1.272,0,0,0-1.1.636,1.273,1.273,0,0,0,0,1.273,1.273,1.273,0,0,0,1.1.636h3.819a1.274,1.274,0,0,0,1.1-.636A1.273,1.273,0,0,0,2133.12-1000.538Z" transform="translate(-2077.291 1027.901)"/><path class="b" d="M2031.679-765.6a1.273,1.273,0,0,0-1.229-.329,1.273,1.273,0,0,0-.9.9,1.273,1.273,0,0,0,.329,1.229l2.7,2.7a1.27,1.27,0,0,0,.9.373,1.272,1.272,0,0,0,1.178-.785,1.271,1.271,0,0,0-.278-1.388Z" transform="translate(-1986.58 808.902)"/><path class="b" d="M1796.217-668.386a1.273,1.273,0,0,0-1.273,0,1.272,1.272,0,0,0-.636,1.1v3.818a1.273,1.273,0,0,0,1.273,1.273,1.273,1.273,0,0,0,1.273-1.273v-3.818A1.273,1.273,0,0,0,1796.217-668.386Z" transform="translate(-1767.581 718.192)"/><path class="b" d="M1522.968-765.6l-2.7,2.7a1.27,1.27,0,0,0-.278,1.387,1.271,1.271,0,0,0,1.177.785,1.273,1.273,0,0,0,.9-.373l2.7-2.7a1.273,1.273,0,0,0,0-1.8A1.273,1.273,0,0,0,1522.968-765.6Z" transform="translate(-1512.067 808.903)"/><path class="b" d="M1411.345-1001.174h-3.818a1.272,1.272,0,0,0-1.1.636,1.273,1.273,0,0,0,0,1.273,1.273,1.273,0,0,0,1.1.636h3.818a1.273,1.273,0,0,0,1.1-.636,1.272,1.272,0,0,0,0-1.273A1.272,1.272,0,0,0,1411.345-1001.174Z" transform="translate(-1406.254 1027.901)"/><path class="b" d="M1522.991-1270.69a1.268,1.268,0,0,0,.9.373,1.271,1.271,0,0,0,1.177-.785,1.271,1.271,0,0,0-.278-1.388l-2.7-2.7a1.272,1.272,0,0,0-1.229-.329,1.273,1.273,0,0,0-.9.9,1.273,1.273,0,0,0,.329,1.229Z" transform="translate(-1512.09 1283.392)"/></g></g></svg>
