<svg xmlns="http://www.w3.org/2000/svg" xmlns:xlink="http://www.w3.org/1999/xlink" width="128" height="128" viewBox="0 0 128 128"><defs><style>.a{fill:url(#a);}.b{fill:#fff;}.c{filter:url(#b);}</style><linearGradient id="a" x1="0.5" x2="0.5" y2="1" gradientUnits="objectBoundingBox"><stop offset="0" stop-color="#3EBCD4"/><stop offset="1" stop-color="#3EBCD4"/></linearGradient><filter id="b" x="0" y="0" width="128" height="128" filterUnits="userSpaceOnUse"><feOffset dy="8" input="SourceAlpha"/><feGaussianBlur stdDeviation="8" result="c"/><feFlood flood-color="#3EBCD4" flood-opacity="0.239"/><feComposite operator="in" in2="c"/><feComposite in="SourceGraphic"/></filter></defs><g transform="translate(-684 -202)"><g class="c" transform="matrix(1, 0, 0, 1, 684, 202)"><rect class="a" width="80" height="80" rx="4" transform="translate(24 16)"/></g><g transform="translate(94.233 335.069)"><path class="b" d="M939.294-14.116a5.3,5.3,0,0,0,5.25-5.25,5.3,5.3,0,0,0-5.25-5.25,5.3,5.3,0,0,0-5.25,5.25,5.3,5.3,0,0,0,5.25,5.25Zm0-8.432a3.059,3.059,0,0,1,3.023,3.182,3.021,3.021,0,0,1-3.023,3.023,3.021,3.021,0,0,1-3.023-3.023,3.276,3.276,0,0,1,3.023-3.182Zm0,0" transform="translate(-285.527 -69.885)"/><g transform="translate(625.767 -100.069)"><path class="b" d="M861.861-84.637l6.523,14.954a.156.156,0,0,0,.159.159,3.245,3.245,0,0,0,2.545,1.591,3.01,3.01,0,0,0,2.7-1.909l6.841-14.318a10.429,10.429,0,0,0,1.432-5.25,10.659,10.659,0,0,0-10.659-10.659A10.659,10.659,0,0,0,860.747-89.41a9.61,9.61,0,0,0,1.114,4.773Zm9.545-13.046a8.488,8.488,0,0,1,8.432,8.432,9.559,9.559,0,0,1-1.114,4.3l-6.841,14.318c-.159.318-.477.636-.636.636s-.477-.159-.8-.636l-6.364-14.8a7.557,7.557,0,0,1-.955-3.818,8.157,8.157,0,0,1,8.273-8.432Zm0,0" transform="translate(-843.406 100.069)"/><path class="b" d="M681.767,226.28V225.8l-7.955-17.023a.156.156,0,0,0-.159-.159l-.318-.318a.156.156,0,0,1-.159-.159l-8.591-3.659a1.108,1.108,0,1,0-.8,2.068l8.273,3.5,6.523,14L668.244,219.6l-3.5-9.227c-.159-.636-.8-.8-1.432-.636s-.8.8-.636,1.432l3.341,8.75-11.136,6.045v-7.954a1.114,1.114,0,1,0-2.227,0v7.954l-11.136-6.045,3.341-8.75c.159-.636,0-1.273-.637-1.432s-1.273,0-1.432.636l-3.5,9.227-10.341,4.455,6.523-14,8.273-3.5a1.108,1.108,0,0,0-.8-2.068l-8.591,3.659a187.5,187.5,0,0,0-.318.318l-.318.318L625.767,225.8v.8c0,.159.159.159.159.318.159.159.159.159.318.159s.318.159.477.159a.585.585,0,0,0,.477-.159l12.886-5.568,13.2,7c.159,0,.318.159.477.159h.477l13.2-7,12.887,5.568c.159,0,.318.159.477.159a.584.584,0,0,0,.477-.159c.159,0,.159-.159.318-.159,0-.159.159-.159.159-.318Zm0,0" transform="translate(-625.767 -181.894)"/></g></g></g></svg>
